<svg width="1442" height="828" viewBox="0 0 1442 828" fill="none" xmlns="http://www.w3.org/2000/svg">
<mask id="path-1-inside-1_3295_37" fill="white">
<path d="M0 0H1442V828H0V0Z"/>
</mask>
<path d="M0 0H1442V828H0V0Z" fill="white"/>
<path d="M0 0V1H1442V0V-1H0V0Z" fill="black" fill-opacity="0.05" mask="url(#path-1-inside-1_3295_37)"/>
<mask id="path-3-outside-2_3295_37" maskUnits="userSpaceOnUse" x="194" y="119" width="1054" height="68" fill="black">
<rect fill="white" x="194" y="119" width="1054" height="68"/>
<path d="M316.728 121.35V184.65H296.345V126.921L301.328 127.174L266.791 184.65H244.937L210.4 127.343L215.382 127.005V184.65H195V121.35H227.951L260.223 176.716H251.618L283.776 121.35H316.728Z"/>
<path d="M404.678 147.092V158.908H343.191V147.092H404.678ZM357.685 153L352.023 179.164L343.078 171.652H408.301V184.65H330.622L337.19 153L330.622 121.35H407.735V134.348H343.078L352.023 126.836L357.685 153Z"/>
<path d="M493.806 147.092V158.908H432.32V147.092H493.806ZM446.814 153L441.152 179.164L432.206 171.652H497.43V184.65H419.75L426.318 153L419.75 121.35H496.864V134.348H432.206L441.152 126.836L446.814 153Z"/>
<path d="M537.214 128.355H558.616V184.65H537.214V128.355ZM504.15 121.35H591.68V135.445H504.15V121.35Z"/>
<path d="M672.906 186C662.941 186 654.185 184.621 646.636 181.864C639.162 179.107 633.349 175.253 629.197 170.302C625.045 165.35 622.969 159.583 622.969 153C622.969 146.417 625.045 140.65 629.197 135.698C633.349 130.747 639.162 126.893 646.636 124.136C654.185 121.379 662.941 120 672.906 120C682.871 120 691.59 121.379 699.063 124.136C706.612 126.893 712.463 130.747 716.615 135.698C720.842 140.65 722.956 146.417 722.956 153C722.956 159.583 720.842 165.35 716.615 170.302C712.463 175.253 706.612 179.107 699.063 181.864C691.59 184.621 682.871 186 672.906 186ZM672.906 171.737C678.794 171.737 683.852 171.005 688.08 169.542C692.307 168.023 695.553 165.857 697.818 163.043C700.158 160.23 701.328 156.882 701.328 153C701.328 149.118 700.158 145.77 697.818 142.957C695.553 140.143 692.307 138.005 688.08 136.542C683.852 135.023 678.794 134.263 672.906 134.263C667.093 134.263 662.073 135.023 657.846 136.542C653.618 138.005 650.335 140.143 647.994 142.957C645.654 145.77 644.484 149.118 644.484 153C644.484 156.882 645.654 160.23 647.994 163.043C650.335 165.857 653.618 168.023 657.846 169.542C662.073 171.005 667.093 171.737 672.906 171.737Z"/>
<path d="M755.9 156.629C755.9 159.724 756.693 162.425 758.278 164.731C759.939 166.982 762.317 168.726 765.412 169.964C768.507 171.146 772.319 171.737 776.849 171.737C781.454 171.737 785.304 171.146 788.399 169.964C791.494 168.726 793.834 166.982 795.419 164.731C797.005 162.425 797.797 159.724 797.797 156.629V121.35H819.085V157.389C819.085 163.128 817.311 168.136 813.763 172.412C810.291 176.688 805.384 180.036 799.043 182.455C792.702 184.818 785.304 186 776.849 186C768.394 186 760.996 184.818 754.655 182.455C748.314 180.036 743.369 176.688 739.821 172.412C736.273 168.136 734.499 163.128 734.499 157.389V121.35H755.9V156.629Z"/>
<path d="M849.435 149.202H881.254C885.255 149.202 888.426 148.527 890.766 147.176C893.106 145.77 894.276 143.829 894.276 141.353C894.276 138.877 893.106 136.964 890.766 135.614C888.426 134.207 885.255 133.504 881.254 133.504H846.378L856.003 125.655V184.65H834.601V121.35H884.085C890.426 121.35 895.975 122.194 900.731 123.882C905.487 125.57 909.186 127.905 911.828 130.887C914.47 133.87 915.791 137.358 915.791 141.353C915.791 145.292 914.47 148.752 911.828 151.734C909.186 154.716 905.487 157.051 900.731 158.739C895.975 160.371 890.426 161.187 884.085 161.187H849.435V149.202ZM863.137 155.026H887.256L918.509 184.65H893.71L863.137 155.026Z"/>
<path d="M1051.42 158.486C1050.59 163.944 1048.06 168.754 1043.84 172.918C1039.61 177.026 1034.02 180.233 1027.08 182.54C1020.13 184.847 1012.21 186 1003.3 186C993.56 186 984.992 184.621 977.594 181.864C970.272 179.107 964.572 175.253 960.496 170.302C956.419 165.35 954.381 159.583 954.381 153C954.381 146.417 956.419 140.65 960.496 135.698C964.572 130.747 970.272 126.893 977.594 124.136C984.992 121.379 993.56 120 1003.3 120C1012.21 120 1020.13 121.153 1027.08 123.46C1034.02 125.767 1039.61 128.974 1043.84 133.082C1048.06 137.189 1050.59 142 1051.42 147.514H1029.91C1029.15 144.645 1027.61 142.197 1025.27 140.171C1023 138.146 1019.98 136.598 1016.21 135.529C1012.51 134.404 1008.21 133.841 1003.3 133.841C997.637 133.841 992.768 134.629 988.691 136.205C984.615 137.724 981.482 139.918 979.293 142.788C977.104 145.657 976.009 149.061 976.009 153C976.009 156.939 977.104 160.343 979.293 163.212C981.482 166.082 984.615 168.304 988.691 169.88C992.768 171.399 997.637 172.159 1003.3 172.159C1008.21 172.159 1012.51 171.624 1016.21 170.555C1019.98 169.486 1023 167.939 1025.27 165.913C1027.61 163.887 1029.15 161.412 1029.91 158.486H1051.42Z"/>
<path d="M1134.51 147.092V158.908H1073.03V147.092H1134.51ZM1087.52 153L1081.86 179.164L1072.91 171.652H1138.14V184.65H1060.46L1067.03 153L1060.46 121.35H1137.57V134.348H1072.91L1081.86 126.836L1087.52 153Z"/>
<path d="M1196.95 186C1186.99 186 1178.23 184.621 1170.68 181.864C1163.21 179.107 1157.39 175.253 1153.24 170.302C1149.09 165.35 1147.01 159.583 1147.01 153C1147.01 146.417 1149.09 140.65 1153.24 135.698C1157.39 130.747 1163.21 126.893 1170.68 124.136C1178.23 121.379 1186.99 120 1196.95 120C1206.91 120 1215.63 121.379 1223.11 124.136C1230.66 126.893 1236.51 130.747 1240.66 135.698C1244.89 140.65 1247 146.417 1247 153C1247 159.583 1244.89 165.35 1240.66 170.302C1236.51 175.253 1230.66 179.107 1223.11 181.864C1215.63 184.621 1206.91 186 1196.95 186ZM1196.95 171.737C1202.84 171.737 1207.9 171.005 1212.12 169.542C1216.35 168.023 1219.6 165.857 1221.86 163.043C1224.2 160.23 1225.37 156.882 1225.37 153C1225.37 149.118 1224.2 145.77 1221.86 142.957C1219.6 140.143 1216.35 138.005 1212.12 136.542C1207.9 135.023 1202.84 134.263 1196.95 134.263C1191.14 134.263 1186.12 135.023 1181.89 136.542C1177.66 138.005 1174.38 140.143 1172.04 142.957C1169.7 145.77 1168.53 149.118 1168.53 153C1168.53 156.882 1169.7 160.23 1172.04 163.043C1174.38 165.857 1177.66 168.023 1181.89 169.542C1186.12 171.005 1191.14 171.737 1196.95 171.737Z"/>
</mask>
<path d="M316.728 121.35V184.65H296.345V126.921L301.328 127.174L266.791 184.65H244.937L210.4 127.343L215.382 127.005V184.65H195V121.35H227.951L260.223 176.716H251.618L283.776 121.35H316.728Z" stroke="black" stroke-opacity="0.1" stroke-width="2" mask="url(#path-3-outside-2_3295_37)"/>
<path d="M404.678 147.092V158.908H343.191V147.092H404.678ZM357.685 153L352.023 179.164L343.078 171.652H408.301V184.65H330.622L337.19 153L330.622 121.35H407.735V134.348H343.078L352.023 126.836L357.685 153Z" stroke="black" stroke-opacity="0.1" stroke-width="2" mask="url(#path-3-outside-2_3295_37)"/>
<path d="M493.806 147.092V158.908H432.32V147.092H493.806ZM446.814 153L441.152 179.164L432.206 171.652H497.43V184.65H419.75L426.318 153L419.75 121.35H496.864V134.348H432.206L441.152 126.836L446.814 153Z" stroke="black" stroke-opacity="0.1" stroke-width="2" mask="url(#path-3-outside-2_3295_37)"/>
<path d="M537.214 128.355H558.616V184.65H537.214V128.355ZM504.15 121.35H591.68V135.445H504.15V121.35Z" stroke="black" stroke-opacity="0.1" stroke-width="2" mask="url(#path-3-outside-2_3295_37)"/>
<path d="M672.906 186C662.941 186 654.185 184.621 646.636 181.864C639.162 179.107 633.349 175.253 629.197 170.302C625.045 165.35 622.969 159.583 622.969 153C622.969 146.417 625.045 140.65 629.197 135.698C633.349 130.747 639.162 126.893 646.636 124.136C654.185 121.379 662.941 120 672.906 120C682.871 120 691.59 121.379 699.063 124.136C706.612 126.893 712.463 130.747 716.615 135.698C720.842 140.65 722.956 146.417 722.956 153C722.956 159.583 720.842 165.35 716.615 170.302C712.463 175.253 706.612 179.107 699.063 181.864C691.59 184.621 682.871 186 672.906 186ZM672.906 171.737C678.794 171.737 683.852 171.005 688.08 169.542C692.307 168.023 695.553 165.857 697.818 163.043C700.158 160.23 701.328 156.882 701.328 153C701.328 149.118 700.158 145.77 697.818 142.957C695.553 140.143 692.307 138.005 688.08 136.542C683.852 135.023 678.794 134.263 672.906 134.263C667.093 134.263 662.073 135.023 657.846 136.542C653.618 138.005 650.335 140.143 647.994 142.957C645.654 145.77 644.484 149.118 644.484 153C644.484 156.882 645.654 160.23 647.994 163.043C650.335 165.857 653.618 168.023 657.846 169.542C662.073 171.005 667.093 171.737 672.906 171.737Z" stroke="black" stroke-opacity="0.1" stroke-width="2" mask="url(#path-3-outside-2_3295_37)"/>
<path d="M755.9 156.629C755.9 159.724 756.693 162.425 758.278 164.731C759.939 166.982 762.317 168.726 765.412 169.964C768.507 171.146 772.319 171.737 776.849 171.737C781.454 171.737 785.304 171.146 788.399 169.964C791.494 168.726 793.834 166.982 795.419 164.731C797.005 162.425 797.797 159.724 797.797 156.629V121.35H819.085V157.389C819.085 163.128 817.311 168.136 813.763 172.412C810.291 176.688 805.384 180.036 799.043 182.455C792.702 184.818 785.304 186 776.849 186C768.394 186 760.996 184.818 754.655 182.455C748.314 180.036 743.369 176.688 739.821 172.412C736.273 168.136 734.499 163.128 734.499 157.389V121.35H755.9V156.629Z" stroke="black" stroke-opacity="0.1" stroke-width="2" mask="url(#path-3-outside-2_3295_37)"/>
<path d="M849.435 149.202H881.254C885.255 149.202 888.426 148.527 890.766 147.176C893.106 145.77 894.276 143.829 894.276 141.353C894.276 138.877 893.106 136.964 890.766 135.614C888.426 134.207 885.255 133.504 881.254 133.504H846.378L856.003 125.655V184.65H834.601V121.35H884.085C890.426 121.35 895.975 122.194 900.731 123.882C905.487 125.57 909.186 127.905 911.828 130.887C914.47 133.87 915.791 137.358 915.791 141.353C915.791 145.292 914.47 148.752 911.828 151.734C909.186 154.716 905.487 157.051 900.731 158.739C895.975 160.371 890.426 161.187 884.085 161.187H849.435V149.202ZM863.137 155.026H887.256L918.509 184.65H893.71L863.137 155.026Z" stroke="black" stroke-opacity="0.1" stroke-width="2" mask="url(#path-3-outside-2_3295_37)"/>
<path d="M1051.42 158.486C1050.59 163.944 1048.06 168.754 1043.84 172.918C1039.61 177.026 1034.02 180.233 1027.08 182.54C1020.13 184.847 1012.21 186 1003.3 186C993.56 186 984.992 184.621 977.594 181.864C970.272 179.107 964.572 175.253 960.496 170.302C956.419 165.35 954.381 159.583 954.381 153C954.381 146.417 956.419 140.65 960.496 135.698C964.572 130.747 970.272 126.893 977.594 124.136C984.992 121.379 993.56 120 1003.3 120C1012.21 120 1020.13 121.153 1027.08 123.46C1034.02 125.767 1039.61 128.974 1043.84 133.082C1048.06 137.189 1050.59 142 1051.42 147.514H1029.91C1029.15 144.645 1027.61 142.197 1025.27 140.171C1023 138.146 1019.98 136.598 1016.21 135.529C1012.51 134.404 1008.21 133.841 1003.3 133.841C997.637 133.841 992.768 134.629 988.691 136.205C984.615 137.724 981.482 139.918 979.293 142.788C977.104 145.657 976.009 149.061 976.009 153C976.009 156.939 977.104 160.343 979.293 163.212C981.482 166.082 984.615 168.304 988.691 169.88C992.768 171.399 997.637 172.159 1003.3 172.159C1008.21 172.159 1012.51 171.624 1016.21 170.555C1019.98 169.486 1023 167.939 1025.27 165.913C1027.61 163.887 1029.15 161.412 1029.91 158.486H1051.42Z" stroke="black" stroke-opacity="0.1" stroke-width="2" mask="url(#path-3-outside-2_3295_37)"/>
<path d="M1134.51 147.092V158.908H1073.03V147.092H1134.51ZM1087.52 153L1081.86 179.164L1072.91 171.652H1138.14V184.65H1060.46L1067.03 153L1060.46 121.35H1137.57V134.348H1072.91L1081.86 126.836L1087.52 153Z" stroke="black" stroke-opacity="0.1" stroke-width="2" mask="url(#path-3-outside-2_3295_37)"/>
<path d="M1196.95 186C1186.99 186 1178.23 184.621 1170.68 181.864C1163.21 179.107 1157.39 175.253 1153.24 170.302C1149.09 165.35 1147.01 159.583 1147.01 153C1147.01 146.417 1149.09 140.65 1153.24 135.698C1157.39 130.747 1163.21 126.893 1170.68 124.136C1178.23 121.379 1186.99 120 1196.95 120C1206.91 120 1215.63 121.379 1223.11 124.136C1230.66 126.893 1236.51 130.747 1240.66 135.698C1244.89 140.65 1247 146.417 1247 153C1247 159.583 1244.89 165.35 1240.66 170.302C1236.51 175.253 1230.66 179.107 1223.11 181.864C1215.63 184.621 1206.91 186 1196.95 186ZM1196.95 171.737C1202.84 171.737 1207.9 171.005 1212.12 169.542C1216.35 168.023 1219.6 165.857 1221.86 163.043C1224.2 160.23 1225.37 156.882 1225.37 153C1225.37 149.118 1224.2 145.77 1221.86 142.957C1219.6 140.143 1216.35 138.005 1212.12 136.542C1207.9 135.023 1202.84 134.263 1196.95 134.263C1191.14 134.263 1186.12 135.023 1181.89 136.542C1177.66 138.005 1174.38 140.143 1172.04 142.957C1169.7 145.77 1168.53 149.118 1168.53 153C1168.53 156.882 1169.7 160.23 1172.04 163.043C1174.38 165.857 1177.66 168.023 1181.89 169.542C1186.12 171.005 1191.14 171.737 1196.95 171.737Z" stroke="black" stroke-opacity="0.1" stroke-width="2" mask="url(#path-3-outside-2_3295_37)"/>
</svg>
