<svg width="134" height="50" viewBox="0 0 134 50" fill="none" xmlns="http://www.w3.org/2000/svg">
<path d="M40.9462 19.4261L38.6034 23.8391L38.0153 24.9483L37.4415 26.0289L36.3323 28.123L27.2145 45.3019L28.8975 38.4074L8.73521 37.4177L29.3757 36.4422L30.8291 30.4897L22.8063 30.0977L20.8938 30.002L15.7779 29.7535L13.6073 29.6482L11.1162 29.5239L13.5547 29.4091L15.4672 29.3183L21.0086 29.0553L22.9736 28.9645L31.2977 28.5725L31.9527 25.8759H18.618L20.2914 22.725L15.2903 22.4812L13.3539 22.3857L0 21.7306L13.6121 21.0851L15.5962 20.9942L21.3528 20.7217L23.6525 16.39L23.9729 15.7876L20.0906 15.5628L9.97828 14.97L24.2215 14.1619L24.8527 14.1285L25.0821 13.6934L28.1325 7.94158L7.54952 6.93268L29.2131 5.90958L32.3496 0L30.7622 6.50718L29.5096 11.6423L28.9406 13.9706L27.6114 19.4261H40.9462Z" fill="#AB0415"/>
<mask id="mask0_40015162_851" style="mask-type:luminance" maskUnits="userSpaceOnUse" x="23" y="2" width="111" height="48">
<path d="M23.3418 2.5293H133.262V49.7859H23.3418V2.5293Z" fill="white"/>
</mask>
<g mask="url(#mask0_40015162_851)">
<path d="M43.884 11.2219C45.6589 10.7078 47.4536 10.258 49.2679 9.87298C49.7201 9.77075 50.1762 9.68751 50.6323 9.6033C50.8601 9.56192 51.088 9.51714 51.3167 9.47771L52.0041 9.36818L52.6919 9.25914C52.9212 9.22312 53.1519 9.19732 53.3822 9.16616C53.8432 9.10872 54.3027 9.03814 54.7661 8.99822L55.4603 8.92861C55.6915 8.90622 55.9227 8.87994 56.1554 8.86728C56.6198 8.8371 57.0837 8.80108 57.549 8.77576L58.9515 8.73828C59.4193 8.74169 59.8871 8.75337 60.3554 8.76067C62.2304 8.82882 64.088 9.04593 65.9286 9.41199C67.7642 9.78097 69.5663 10.2746 71.3338 10.8928C73.0926 11.5125 74.8153 12.2207 76.501 13.0176C76.9206 13.2177 77.3427 13.4134 77.756 13.6246C78.1697 13.8349 78.5888 14.036 78.9972 14.255C79.4076 14.4716 79.8204 14.6829 80.2283 14.9039L81.4424 15.5654C82.2465 16.0045 83.0453 16.4314 83.8602 16.8014C84.2667 16.9888 84.677 17.1582 85.0923 17.3096C85.5046 17.4624 85.9232 17.5939 86.3492 17.7039L86.6675 17.7827L86.9937 17.8514C87.2103 17.9005 87.4322 17.9341 87.6513 17.9765C88.0933 18.0485 88.5377 18.1142 88.9875 18.1639C89.8856 18.2685 90.7974 18.3401 91.7159 18.4146C92.635 18.4895 93.5633 18.5684 94.4926 18.6945L97.2298 19.1121C98.141 19.2499 99.0542 19.3896 99.9669 19.5454C100.879 19.7007 101.791 19.8681 102.698 20.0701C103.605 20.2697 104.508 20.4932 105.401 20.755C106.299 21.0125 108.479 20.5486 109.344 20.8986C110.212 21.2501 109.75 22.433 110.555 22.9105C111.366 23.3871 112.114 23.9464 112.8 24.5894C113.485 25.2344 114.064 25.9631 114.537 26.7766C114.999 27.588 115.328 28.4501 115.523 29.3633C115.263 28.4774 114.879 27.6494 114.371 26.8788C113.866 26.117 113.262 25.4423 112.562 24.8552C111.172 23.6865 109.526 22.8628 107.818 22.2573C106.108 21.6424 104.329 21.2238 102.532 20.8986C101.634 20.738 100.731 20.5934 99.8233 20.4659C98.9169 20.3369 98.0062 20.223 97.093 20.1101L94.3587 19.7688C93.4606 19.6705 92.5527 19.6062 91.6347 19.5507C90.7176 19.4928 89.7907 19.4427 88.858 19.3448C88.3922 19.2996 87.9244 19.2372 87.4571 19.1671C87.2234 19.1263 86.9893 19.0936 86.7561 19.0445L86.4056 18.9754L86.0527 18.8936C85.121 18.6604 84.2185 18.3445 83.3447 17.9453C82.4792 17.5608 81.6492 17.1256 80.8344 16.6894L79.6203 16.0347C79.2178 15.8181 78.8103 15.6112 78.4058 15.399C78.0023 15.1838 77.5904 14.9881 77.183 14.7827C76.7756 14.5753 76.3618 14.385 75.95 14.1898C74.3051 13.408 72.6252 12.7119 70.9103 12.1005C69.2007 11.4881 67.4585 10.9936 65.6827 10.6163C63.9084 10.241 62.1156 10.0029 60.3042 9.90218C59.852 9.88661 59.3998 9.86665 58.9471 9.85448L57.5875 9.86178C57.1328 9.87444 56.6787 9.89731 56.2235 9.91435C55.9957 9.92019 55.7689 9.93967 55.5415 9.95573L54.8596 10.0054C54.4044 10.0317 53.9517 10.0886 53.4975 10.1324C53.2707 10.1573 53.0434 10.1758 52.817 10.2054L52.138 10.294L51.4589 10.3831C51.2325 10.4157 51.0072 10.4532 50.7813 10.4883C50.33 10.5613 49.8768 10.6226 49.427 10.7073C47.6235 11.0159 45.8292 11.3986 44.0471 11.8367C40.6396 12.6574 37.2725 13.665 33.9006 14.6639L33.8027 14.66C37.1187 13.3978 40.4688 12.2212 43.884 11.2219Z" fill="white"/>
<path d="M103.133 31.0562C102.465 29.2974 101.174 27.7168 99.4819 26.6259C97.8347 25.5127 95.7868 24.8896 93.7384 24.8672H93.7165C91.6457 24.8672 89.5978 25.4684 87.9505 26.5369C86.2584 27.6277 84.9451 29.1859 84.2324 30.9223C85.4796 29.4532 86.9039 28.2956 88.5069 27.5163C90.1099 26.7369 91.8686 26.3144 93.5826 26.3144C93.6274 26.3144 93.6717 26.3144 93.7165 26.3144H93.7831C95.4971 26.3144 97.2783 26.7593 98.9255 27.583C100.506 28.3847 101.931 29.5642 103.133 31.0562Z" fill="white"/>
<path d="M50.7051 22.4219C51.2231 22.9065 51.7802 23.3862 52.509 23.7862C52.934 24.0151 53.427 24.2121 53.9886 24.329C54.5782 24.456 55.2164 24.488 55.8431 24.5129C63.4412 24.7642 71.0413 24.9994 78.6404 25.2415C79.1014 25.2647 79.5674 25.2521 80.0249 25.2964C76.425 25.2529 72.8237 25.2343 69.2233 25.1986C64.5989 25.1628 59.9755 25.1199 55.351 25.0835C54.7529 25.0699 54.1437 25.1002 53.5546 25.0314C52.6707 24.9232 51.9814 24.523 51.7076 24.0624C51.3778 23.5146 51.0194 22.9718 50.7051 22.4219Z" fill="white"/>
<path d="M56.1401 25.8127C56.4084 25.7935 56.6752 25.7544 56.9475 25.7559C61.993 25.8766 67.0411 25.9862 72.0887 26.077C73.9164 26.1045 75.744 26.1417 77.5732 26.1454C77.777 26.1478 77.9814 26.1598 78.1848 26.176C77.4594 26.164 76.7361 26.2129 76.0118 26.2184C71.4253 26.3315 66.8332 26.3385 62.2442 26.3266C58.6266 26.3156 55.0101 26.2774 51.3945 26.2258C52.9745 26.08 54.5586 25.9517 56.1401 25.8127Z" fill="white"/>
<path d="M39.7812 27.0205C41.153 27.0799 42.5182 27.1773 43.8884 27.2479C50.2205 27.604 56.5567 27.9433 62.8973 28.251C67.1385 28.4537 71.3817 28.648 75.6319 28.7847C76.6749 28.8079 77.7158 28.8516 78.7593 28.8564C77.0754 28.8698 75.391 28.844 73.707 28.8373C69.4408 28.8174 65.175 28.7981 60.9088 28.7883C60.6036 28.7847 60.2979 28.7939 59.9933 28.7816C53.2551 28.1973 46.5204 27.6012 39.7812 27.0205Z" fill="white"/>
</g>
<path d="M76.5385 17.3587C76.5385 17.3587 71.1784 13.7889 65.3586 12.9504C59.5316 12.1083 53.3862 13.3114 50.1348 14.2099L52.9651 16.4671L63.2021 17.3232L73.4392 18.1794L56.9629 18.887H78.7391C78.3747 18.2644 76.5385 17.3587 76.5385 17.3587Z" fill="white"/>
<mask id="mask1_40015162_851" style="mask-type:luminance" maskUnits="userSpaceOnUse" x="105" y="28" width="9" height="4">
<path d="M113.316 28.8125H105.092V31.612H113.316V28.8125Z" fill="white"/>
</mask>
<g mask="url(#mask1_40015162_851)">
<path d="M113.287 31.6747C113.287 31.6747 111.684 29.3595 105.139 28.9365C105.139 28.9365 106.431 30.2723 107.21 30.8063C107.989 31.3408 108.991 31.0511 110.571 31.2293C112.174 31.385 113.287 31.6747 113.287 31.6747Z" fill="white"/>
</g>
<line x1="40.9336" y1="34.2223" x2="116.245" y2="34.2223" stroke="white" stroke-width="0.313191"/>
<path d="M44.8801 44.6299C44.4891 44.6299 44.1355 44.5864 43.819 44.4995C43.5087 44.4189 43.2605 44.2793 43.0744 44.0807C42.8944 43.8821 42.8044 43.6122 42.8044 43.2709C42.8044 42.9172 42.9006 42.5915 43.093 42.2936C43.2853 41.9896 43.5367 41.7662 43.8469 41.6235L43.8562 41.5583C43.5956 41.3349 43.4653 41.0029 43.4653 40.5624C43.4653 40.1714 43.5398 39.8457 43.6887 39.5851C43.8376 39.3244 44.0331 39.1166 44.2751 38.9614C44.5171 38.8063 44.7839 38.6977 45.0755 38.6357C45.3734 38.5674 45.665 38.5333 45.9505 38.5333C46.2855 38.5333 46.5958 38.5736 46.8812 38.6543C47.1729 38.735 47.4056 38.8715 47.5793 39.0638C47.7593 39.2562 47.8492 39.5199 47.8492 39.855C47.8492 40.2149 47.7655 40.55 47.5979 40.8602C47.4304 41.1643 47.2256 41.397 46.9836 41.5583L46.9743 41.6235C47.1543 41.7227 47.2939 41.8655 47.3932 42.0516C47.4986 42.2316 47.5514 42.4363 47.5514 42.6659C47.5514 43.1375 47.4304 43.5191 47.1884 43.8108C46.9464 44.0962 46.6206 44.3041 46.2111 44.4344C45.8077 44.5647 45.3641 44.6299 44.8801 44.6299ZM43.7259 39.0545L40.1983 38.6729H44.2006C44.0331 38.7722 43.8748 38.8994 43.7259 39.0545ZM43.2419 39.976L39.3699 39.5664H43.3815C43.3567 39.6285 43.3319 39.6937 43.3071 39.7619C43.2822 39.8302 43.2605 39.9015 43.2419 39.976ZM45.7922 40.9068C45.9101 40.9068 45.9815 40.8509 46.0063 40.7392L46.1366 39.9853H45.7829C45.6092 39.9853 45.4727 40.007 45.3734 40.0504C45.2741 40.0877 45.2089 40.1963 45.1779 40.3762L45.15 40.5531L45.6712 40.8695C45.7209 40.8943 45.7612 40.9068 45.7922 40.9068ZM43.2047 40.8788L39.2582 40.46H43.1861V40.5624C43.1861 40.6182 43.1861 40.6741 43.1861 40.7299C43.1923 40.7796 43.1985 40.8292 43.2047 40.8788ZM43.1768 41.7538L39.4723 41.3535H43.3536C43.366 41.3846 43.3815 41.4156 43.4001 41.4466C43.4188 41.4714 43.4374 41.4994 43.456 41.5304C43.3567 41.5924 43.2636 41.6669 43.1768 41.7538ZM42.6183 42.6566L38.7649 42.2471H42.7858L42.7765 42.275C42.7083 42.4053 42.6555 42.5325 42.6183 42.6566ZM44.6753 43.2244H45.0383C45.2183 43.2244 45.3548 43.2058 45.4478 43.1685C45.5409 43.1251 45.603 43.0134 45.634 42.8335L45.6712 42.6194L45.1221 42.3122C45.06 42.275 45.0042 42.2564 44.9545 42.2564C44.8863 42.2564 44.8428 42.3091 44.8242 42.4146L44.6753 43.2244ZM42.5531 43.5595L38.6067 43.1406H42.5345C42.5283 43.1654 42.5252 43.1903 42.5252 43.2151C42.5252 43.2337 42.5252 43.2523 42.5252 43.2709C42.5252 43.3702 42.5345 43.4664 42.5531 43.5595ZM43.0558 44.4623L39.1186 44.0435H42.7021C42.7827 44.2048 42.9006 44.3444 43.0558 44.4623ZM50.2436 41.5862C50.3615 40.9099 50.5198 40.3483 50.7183 39.9015C50.9231 39.4485 51.2148 39.1073 51.5933 38.8777C51.978 38.6481 52.4961 38.5333 53.1477 38.5333C53.8861 38.5333 54.398 38.6791 54.6834 38.9708C54.9751 39.2624 55.1209 39.6968 55.1209 40.2738C55.1209 40.4662 55.1085 40.671 55.0837 40.8881C55.0588 41.1053 55.0247 41.338 54.9813 41.5862C54.8634 42.2564 54.702 42.8179 54.4973 43.2709C54.2987 43.7177 54.0102 44.0559 53.6317 44.2855C53.2531 44.5151 52.735 44.6299 52.0773 44.6299C51.3389 44.6299 50.8238 44.484 50.5322 44.1924C50.2467 43.9007 50.104 43.4695 50.104 42.8986C50.104 42.5139 50.1506 42.0764 50.2436 41.5862ZM51.3606 38.6729C51.2799 38.7288 51.2023 38.7877 51.1279 38.8498C51.0534 38.9118 50.9821 38.9801 50.9138 39.0545L47.3583 38.6729H51.3606ZM50.5508 39.5664C50.5198 39.6285 50.4888 39.6937 50.4577 39.7619C50.4267 39.8302 50.3957 39.9015 50.3646 39.976L46.5485 39.5664H50.5508ZM52.2541 40.5251L51.7887 43.1313H52.161C52.3968 43.1313 52.5799 43.1065 52.7102 43.0568C52.8405 43.0072 52.9274 42.8676 52.9708 42.638L53.4269 40.0318H53.008C52.766 40.0318 52.5892 40.0567 52.4775 40.1063C52.372 40.1559 52.2976 40.2956 52.2541 40.5251ZM50.2064 40.46L50.0947 40.8788L46.1855 40.46H50.2064ZM49.9179 41.7724L45.9714 41.3535H49.9923L49.9179 41.7724ZM49.8248 42.6659L45.8783 42.2471H49.862C49.8558 42.3153 49.8496 42.3836 49.8434 42.4518C49.8372 42.5201 49.831 42.5915 49.8248 42.6659ZM49.8248 43.1406C49.8372 43.2895 49.8558 43.4292 49.8806 43.5595L45.9435 43.1406H49.8248ZM50.3833 44.4623L46.4368 44.0435H50.0482C50.1351 44.211 50.2467 44.3506 50.3833 44.4623ZM57.4426 41.5862C57.5605 40.9099 57.7187 40.3483 57.9173 39.9015C58.1221 39.4485 58.4137 39.1073 58.7922 38.8777C59.1769 38.6481 59.6951 38.5333 60.3466 38.5333C61.085 38.5333 61.5969 38.6791 61.8824 38.9708C62.174 39.2624 62.3198 39.6968 62.3198 40.2738C62.3198 40.4662 62.3074 40.671 62.2826 40.8881C62.2578 41.1053 62.2237 41.338 62.1802 41.5862C62.0623 42.2564 61.901 42.8179 61.6962 43.2709C61.4977 43.7177 61.2091 44.0559 60.8306 44.2855C60.4521 44.5151 59.934 44.6299 59.2762 44.6299C58.5378 44.6299 58.0228 44.484 57.7311 44.1924C57.4457 43.9007 57.303 43.4695 57.303 42.8986C57.303 42.5139 57.3495 42.0764 57.4426 41.5862ZM58.5595 38.6729C58.4789 38.7288 58.4013 38.7877 58.3268 38.8498C58.2524 38.9118 58.181 38.9801 58.1127 39.0545L54.5572 38.6729H58.5595ZM57.7497 39.5664C57.7187 39.6285 57.6877 39.6937 57.6567 39.7619C57.6256 39.8302 57.5946 39.9015 57.5636 39.976L53.7474 39.5664H57.7497ZM59.4531 40.5251L58.9877 43.1313H59.36C59.5958 43.1313 59.7788 43.1065 59.9091 43.0568C60.0394 43.0072 60.1263 42.8676 60.1698 42.638L60.6258 40.0318H60.207C59.965 40.0318 59.7881 40.0567 59.6764 40.1063C59.571 40.1559 59.4965 40.2956 59.4531 40.5251ZM57.4054 40.46L57.2937 40.8788L53.3844 40.46H57.4054ZM57.1168 41.7724L53.1703 41.3535H57.1913L57.1168 41.7724ZM57.0237 42.6659L53.0773 42.2471H57.061C57.0548 42.3153 57.0486 42.3836 57.0424 42.4518C57.0362 42.5201 57.0299 42.5915 57.0237 42.6659ZM57.0237 43.1406C57.0362 43.2895 57.0548 43.4292 57.0796 43.5595L53.1424 43.1406H57.0237ZM57.5822 44.4623L53.6357 44.0435H57.2471C57.334 44.211 57.4457 44.3506 57.5822 44.4623Z" fill="#AB0415"/>
<path d="M64.5019 44.4902L65.5258 38.6729H68.3925C68.8455 38.6729 69.1713 38.7505 69.3699 38.9056C69.5684 39.0607 69.6677 39.2996 69.6677 39.6223C69.6677 40.1187 69.556 40.5158 69.3326 40.8137C69.1154 41.1053 68.8703 41.2853 68.5973 41.3535L68.588 41.4094C68.8921 41.4652 69.1061 41.5924 69.2302 41.791C69.3606 41.9896 69.4257 42.2316 69.4257 42.517C69.4257 42.8645 69.3606 43.1903 69.2302 43.4943C69.1061 43.7922 68.9138 44.0342 68.6532 44.2203C68.3988 44.4003 68.0761 44.4902 67.6852 44.4902H64.5019ZM65.1628 39.0918L61.2256 38.6729H65.2372L65.1628 39.0918ZM65.0138 39.9853L61.0674 39.5664H65.079L65.0138 39.9853ZM66.9126 40.8137H67.4618C67.6231 40.8137 67.7348 40.7516 67.7969 40.6275C67.8589 40.5034 67.8899 40.3638 67.8899 40.2087C67.8899 40.128 67.8713 40.066 67.8341 40.0225C67.7969 39.9729 67.7286 39.9481 67.6293 39.9481H67.0709L66.9126 40.8137ZM64.8556 40.8788L60.9091 40.46H64.9301L64.8556 40.8788ZM64.6974 41.7724L60.7509 41.3535H64.7718L64.6974 41.7724ZM66.5031 43.122H67.1919C67.3594 43.122 67.4804 43.0568 67.5549 42.9265C67.6293 42.7962 67.6665 42.6442 67.6665 42.4705C67.6665 42.3836 67.6448 42.3122 67.6014 42.2564C67.558 42.2005 67.4804 42.1726 67.3687 42.1726H66.6706L66.5031 43.122ZM64.5391 42.6659L60.5927 42.2471H64.6136L64.5391 42.6659ZM64.3809 43.5595L60.4344 43.1406H64.4554L64.3809 43.5595ZM64.2227 44.4623L60.2762 44.0435H64.2971L64.2227 44.4623ZM71.5983 44.4902L74.0462 38.6729H76.7827L77.1922 44.4902H75.3214L75.2841 43.5688H73.8228L73.4598 44.4902H71.5983ZM73.5715 39.0731L69.7739 38.6729H73.739L73.5715 39.0731ZM73.1899 39.9667L69.3923 39.5664H73.3574L73.1899 39.9667ZM72.8176 40.8695L69.0107 40.46H72.9851L72.8176 40.8695ZM74.3999 42.0888H75.1445V40.46H75.0514L74.3999 42.0888ZM72.436 41.7631L68.6291 41.3535H72.6128L72.436 41.7631ZM72.0636 42.6566L68.2475 42.2471H72.2312L72.0636 42.6566ZM71.682 43.5502L67.8659 43.1406H71.8589L71.682 43.5502ZM71.3004 44.453L67.4842 44.0435H71.4773L71.3004 44.453ZM80.4446 44.4902L81.1985 40.1621H79.9234L80.1933 38.6729H84.5214L84.2515 40.1621H82.967L82.2131 44.4902H80.4446ZM79.821 39.0918L75.8838 38.6729H79.8954L79.821 39.0918ZM79.6721 39.9853L75.7256 39.5664H79.7372L79.6721 39.9853ZM80.789 40.8788L76.8425 40.46H80.8634L80.789 40.8788ZM80.6308 41.7724L76.6843 41.3535H80.7052L80.6308 41.7724ZM80.4725 42.6659L76.526 42.2471H80.547L80.4725 42.6659ZM80.3143 43.5595L76.3678 43.1406H80.3888L80.3143 43.5595ZM80.1561 44.4623L76.2096 44.0435H80.2305L80.1561 44.4623ZM87.2072 44.4902L87.9612 40.1621H86.686L86.9559 38.6729H91.284L91.0141 40.1621H89.7296L88.9757 44.4902H87.2072ZM86.5836 39.0918L82.6465 38.6729H86.6581L86.5836 39.0918ZM86.4347 39.9853L82.4882 39.5664H86.4999L86.4347 39.9853ZM87.5516 40.8788L83.6052 40.46H87.6261L87.5516 40.8788ZM87.3934 41.7724L83.4469 41.3535H87.4679L87.3934 41.7724ZM87.2352 42.6659L83.2887 42.2471H87.3096L87.2352 42.6659ZM87.0769 43.5595L83.1305 43.1406H87.1514L87.0769 43.5595ZM86.9187 44.4623L82.9722 44.0435H86.9932L86.9187 44.4623ZM92.825 44.4902L93.8489 38.6729H97.7395L97.2555 40.1621H95.3474L95.2171 40.944H96.9856L96.7436 42.2936H94.9751L94.8541 43.001H97.0228L96.7622 44.4902H92.825ZM93.4859 39.0918L89.5487 38.6729H93.5603L93.4859 39.0918ZM93.337 39.9853L89.3905 39.5664H93.4021L93.337 39.9853ZM93.1787 40.8788L89.2323 40.46H93.2532L93.1787 40.8788ZM93.0205 41.7724L89.074 41.3535H93.095L93.0205 41.7724ZM92.8623 42.6659L88.9158 42.2471H92.9367L92.8623 42.6659ZM92.704 43.5595L88.7576 43.1406H92.7785L92.704 43.5595ZM92.5458 44.4623L88.5993 44.0435H92.6203L92.5458 44.4623ZM99.5786 44.4902L100.602 38.6729H103.395C103.798 38.6729 104.115 38.735 104.344 38.8591C104.58 38.9832 104.744 39.1538 104.837 39.371C104.937 39.582 104.986 39.824 104.986 40.097C104.986 40.2645 104.968 40.4631 104.931 40.6927C104.9 40.9223 104.841 41.1581 104.754 41.4001C104.667 41.6359 104.543 41.8561 104.381 42.0609C104.226 42.2657 104.028 42.4301 103.786 42.5542L104.4 44.4902H102.455L102.027 42.759H101.645L101.347 44.4902H99.5786ZM100.239 39.0918L96.3023 38.6729H100.314L100.239 39.0918ZM100.081 39.9853L96.144 39.5664H100.156L100.081 39.9853ZM101.896 41.3256H102.306C102.486 41.3256 102.638 41.307 102.762 41.2698C102.886 41.2263 102.964 41.1146 102.995 40.9347C103.026 40.7796 103.044 40.6617 103.05 40.581C103.063 40.5003 103.069 40.4569 103.069 40.4507C103.069 40.3142 103.01 40.2335 102.892 40.2087C102.78 40.1777 102.635 40.1621 102.455 40.1621H102.101L101.896 41.3256ZM99.923 40.8788L95.9858 40.46H99.9974L99.923 40.8788ZM99.7647 41.7724L95.8276 41.3535H99.8392L99.7647 41.7724ZM99.6158 42.6659L95.6693 42.2471H99.6903L99.6158 42.6659ZM99.4576 43.5595L95.5111 43.1406H99.5321L99.4576 43.5595ZM99.2994 44.4623L95.3529 44.0435H99.3738L99.2994 44.4623ZM107.536 44.4902L107.806 42.9079L106.968 38.6729H108.923L109.044 40.7206H109.109L109.965 38.6729H111.92L109.574 42.9079L109.304 44.4902H107.536ZM106.773 39.0918L102.836 38.6729H106.689L106.773 39.0918ZM106.94 39.9853L103.003 39.5664H106.857L106.94 39.9853ZM107.117 40.8788L103.18 40.46H107.033L107.117 40.8788ZM107.294 41.7724L103.347 41.3535H107.21L107.294 41.7724ZM107.471 42.6659L103.524 42.2471H107.387L107.471 42.6659ZM107.406 43.5595L103.468 43.1406H107.471L107.406 43.5595ZM107.247 44.4623L103.31 44.0435H107.322L107.247 44.4623ZM113.068 44.4902L114.091 38.6729H116.884C117.287 38.6729 117.603 38.7381 117.833 38.8684C118.063 38.9925 118.224 39.1662 118.317 39.3896C118.416 39.613 118.466 39.8643 118.466 40.1435C118.466 40.3111 118.447 40.5189 118.41 40.7671C118.379 41.0153 118.317 41.2729 118.224 41.5397C118.131 41.8065 118.001 42.0578 117.833 42.2936C117.666 42.5294 117.451 42.7218 117.191 42.8707C116.93 43.0134 116.611 43.0848 116.232 43.0848H115.078L114.836 44.4902H113.068ZM113.728 39.0918L109.791 38.6729H113.803L113.728 39.0918ZM113.57 39.9853L109.633 39.5664H113.645L113.57 39.9853ZM115.339 41.5955H115.748C115.928 41.5955 116.08 41.5769 116.204 41.5397C116.328 41.4962 116.406 41.3846 116.437 41.2046C116.48 40.975 116.508 40.8106 116.521 40.7113C116.539 40.6058 116.549 40.5376 116.549 40.5065C116.555 40.4755 116.558 40.4569 116.558 40.4507C116.558 40.3204 116.505 40.2397 116.4 40.2087C116.294 40.1777 116.161 40.1621 115.999 40.1621H115.59L115.339 41.5955ZM113.412 40.8788L109.475 40.46H113.486L113.412 40.8788ZM113.254 41.7724L109.317 41.3535H113.328L113.254 41.7724ZM113.105 42.6659L109.158 42.2471H113.179L113.105 42.6659ZM112.947 43.5595L109 43.1406H113.021L112.947 43.5595ZM112.788 44.4623L108.842 44.0435H112.863L112.788 44.4623ZM120.221 44.4902L121.245 38.6729H124.037C124.441 38.6729 124.757 38.735 124.987 38.8591C125.222 38.9832 125.387 39.1538 125.48 39.371C125.579 39.582 125.629 39.824 125.629 40.097C125.629 40.2645 125.61 40.4631 125.573 40.6927C125.542 40.9223 125.483 41.1581 125.396 41.4001C125.309 41.6359 125.185 41.8561 125.024 42.0609C124.869 42.2657 124.67 42.4301 124.428 42.5542L125.042 44.4902H123.097L122.669 42.759H122.287L121.989 44.4902H120.221ZM120.882 39.0918L116.945 38.6729H120.956L120.882 39.0918ZM120.724 39.9853L116.786 39.5664H120.798L120.724 39.9853ZM122.539 41.3256H122.948C123.128 41.3256 123.28 41.307 123.404 41.2698C123.528 41.2263 123.606 41.1146 123.637 40.9347C123.668 40.7796 123.687 40.6617 123.693 40.581C123.705 40.5003 123.711 40.4569 123.711 40.4507C123.711 40.3142 123.652 40.2335 123.535 40.2087C123.423 40.1777 123.277 40.1621 123.097 40.1621H122.743L122.539 41.3256ZM120.565 40.8788L116.628 40.46H120.64L120.565 40.8788ZM120.407 41.7724L116.47 41.3535H120.482L120.407 41.7724ZM120.258 42.6659L116.312 42.2471H120.333L120.258 42.6659ZM120.1 43.5595L116.154 43.1406H120.174L120.1 43.5595ZM119.942 44.4623L115.995 44.0435H120.016L119.942 44.4623ZM129.835 44.6299C129.029 44.6299 128.461 44.4716 128.132 44.1552C127.809 43.8387 127.648 43.3702 127.648 42.7497C127.648 42.5759 127.657 42.3929 127.676 42.2005C127.701 42.0082 127.732 41.8034 127.769 41.5862C127.887 40.9099 128.061 40.3483 128.29 39.9015C128.52 39.4485 128.842 39.1073 129.258 38.8777C129.674 38.6481 130.223 38.5333 130.906 38.5333C131.712 38.5333 132.277 38.6915 132.6 39.008C132.928 39.3182 133.093 39.7867 133.093 40.4135C133.093 40.6679 133.071 40.9595 133.028 41.2884C132.99 41.6172 132.922 41.9523 132.823 42.2936C132.73 42.6349 132.603 42.9576 132.441 43.2616C132.28 43.5657 132.078 43.8263 131.836 44.0435C131.588 44.2606 131.3 44.4127 130.971 44.4995C130.642 44.5864 130.263 44.6299 129.835 44.6299ZM128.607 38.9801L125.758 38.6729H129.025C128.951 38.7163 128.88 38.7629 128.811 38.8125C128.743 38.8622 128.675 38.918 128.607 38.9801ZM127.955 39.9388L124.474 39.5664H128.141C128.11 39.6285 128.079 39.6906 128.048 39.7526C128.017 39.8084 127.986 39.8705 127.955 39.9388ZM129.407 43.0382H130.142C130.347 43.0382 130.515 43.0134 130.645 42.9638C130.781 42.9141 130.871 42.7745 130.915 42.5449L131.343 40.1249H130.598C130.394 40.1249 130.226 40.1497 130.096 40.1994C129.965 40.249 129.879 40.3886 129.835 40.6182L129.407 43.0382ZM127.648 40.8416L124.036 40.46H127.76L127.648 40.8416ZM127.471 41.7445L123.813 41.3535H127.536L127.508 41.5397C127.502 41.5769 127.496 41.6141 127.49 41.6514C127.483 41.6824 127.477 41.7134 127.471 41.7445ZM127.378 42.638L123.711 42.2471H127.406C127.387 42.3836 127.378 42.5139 127.378 42.638ZM127.452 43.5315L123.832 43.1406H127.387C127.4 43.2089 127.409 43.2771 127.415 43.3454C127.428 43.4074 127.44 43.4695 127.452 43.5315ZM127.946 44.3878L124.725 44.0435H127.666C127.747 44.1862 127.84 44.301 127.946 44.3878Z" fill="white"/>
<path d="M133.262 49.7861C106.77 49.7861 91.9163 49.7861 65.4238 49.7861" stroke="white" stroke-width="0.420825"/>
</svg>
