<svg width="641" height="240" viewBox="0 0 641 240" fill="none" xmlns="http://www.w3.org/2000/svg">
<path d="M196.399 93.1774L185.162 114.344L182.341 119.665L179.589 124.848L174.269 134.893L130.535 217.291L138.608 184.222L41.8986 179.475L140.901 174.796L147.872 146.244L109.391 144.364L100.217 143.905L75.6791 142.713L65.2675 142.208L53.3192 141.612L65.0154 141.061L74.1886 140.626L100.768 139.364L110.193 138.929L150.12 137.048L153.262 124.114H89.3015L97.3279 109.001L73.34 107.831L64.0521 107.373L0 104.231L65.2906 101.135L74.8075 100.699L102.419 99.3919L113.45 78.6147L114.987 75.7253L96.3651 74.6471L47.861 71.8038L116.179 67.9279L119.206 67.7675L120.307 65.6805L134.938 38.0919L36.2114 33.2527L140.121 28.3454L155.165 0L147.552 31.2118L141.543 55.8423L138.814 67.0102L132.439 93.1774H196.399Z" fill="#AB0415"/>
<mask id="mask0_40015162_850" style="mask-type:luminance" maskUnits="userSpaceOnUse" x="111" y="12" width="529" height="227">
<path d="M111.955 12.1331H639.19V238.8H111.955V12.1331Z" fill="white"/>
</mask>
<g mask="url(#mask0_40015162_850)">
<path d="M210.497 53.8268C219.01 51.3612 227.618 49.2038 236.32 47.3569C238.489 46.8666 240.677 46.4673 242.865 46.0634C243.958 45.8649 245.05 45.6501 246.148 45.461L249.445 44.9356L252.744 44.4126C253.844 44.2398 254.95 44.1161 256.055 43.9667C258.266 43.6911 260.47 43.3526 262.693 43.1611L266.022 42.8272C267.131 42.7198 268.24 42.5938 269.356 42.533C271.584 42.3883 273.809 42.2155 276.041 42.0941L282.768 41.9143C285.012 41.9307 287.256 41.9867 289.502 42.0217C298.496 42.3486 307.405 43.3899 316.234 45.1458C325.038 46.9156 333.682 49.2832 342.16 52.2484C350.596 55.2207 358.859 58.618 366.945 62.4401C368.957 63.3998 370.982 64.3384 372.964 65.3517C374.949 66.3604 376.959 67.3247 378.918 68.3754C380.886 69.4144 382.866 70.4277 384.823 71.4878L390.646 74.6608C394.503 76.7669 398.335 78.8146 402.243 80.5891C404.193 81.488 406.161 82.3005 408.153 83.0267C410.13 83.7598 412.138 84.3902 414.181 84.9179L415.708 85.2962L417.273 85.6254C418.312 85.8612 419.376 86.0223 420.427 86.2255C422.547 86.571 424.679 86.8862 426.836 87.1244C431.144 87.6264 435.517 87.9696 439.923 88.3268C444.332 88.6864 448.784 89.0647 453.241 89.6694L466.37 91.6727C470.741 92.3335 475.121 93.0036 479.499 93.7507C483.875 94.4956 488.25 95.2988 492.6 96.2677C496.948 97.225 501.279 98.2967 505.566 99.5529C509.869 100.788 520.326 98.5629 524.478 100.242C528.641 101.927 526.423 107.601 530.287 109.892C534.175 112.178 537.764 114.86 541.053 117.945C544.341 121.038 547.117 124.534 549.384 128.435C551.602 132.327 553.178 136.463 554.112 140.843C552.866 136.593 551.026 132.622 548.588 128.926C546.164 125.271 543.272 122.035 539.909 119.219C533.246 113.613 525.351 109.663 517.158 106.758C508.956 103.809 500.42 101.801 491.804 100.242C487.494 99.4712 483.163 98.7777 478.811 98.166C474.463 97.5472 470.094 97.0009 465.714 96.4592L452.599 94.8224C448.291 94.3508 443.937 94.0426 439.533 93.7764C435.134 93.4986 430.689 93.2581 426.215 92.7888C423.981 92.5716 421.737 92.2728 419.496 91.9365C418.375 91.7404 417.252 91.584 416.133 91.3482L414.452 91.0166L412.759 90.6243C408.29 89.5059 403.962 87.9906 399.771 86.076C395.619 84.2315 391.638 82.1441 387.73 80.0521L381.906 76.9117C379.976 75.8726 378.021 74.8803 376.081 73.8623C374.145 72.8303 372.17 71.8917 370.216 70.9064C368.261 69.9117 366.277 68.9988 364.302 68.0625C356.412 64.3127 348.354 60.9738 340.129 58.0412C331.929 55.104 323.572 52.7318 315.054 50.9222C306.544 49.122 297.945 47.9803 289.257 47.497C287.087 47.4223 284.918 47.3265 282.747 47.2682L276.226 47.3032C274.045 47.3639 271.866 47.4736 269.683 47.5554C268.591 47.5834 267.503 47.6768 266.412 47.7538L263.141 47.992C260.958 48.1181 258.786 48.3912 256.608 48.6014C255.52 48.7205 254.43 48.8092 253.344 48.9516L250.087 49.3765L246.83 49.8038C245.744 49.9603 244.663 50.1401 243.579 50.3082C241.415 50.6584 239.241 50.9526 237.084 51.3589C228.433 52.8392 219.827 54.6744 211.279 56.7757C194.935 60.7123 178.785 65.5455 162.611 70.3367L162.142 70.318C178.047 64.2637 194.115 58.6203 210.497 53.8268Z" fill="black"/>
<path d="M494.673 148.963C491.469 140.527 485.277 132.946 477.161 127.713C469.26 122.374 459.437 119.385 449.612 119.278H449.507C439.575 119.278 429.752 122.161 421.851 127.286C413.735 132.519 407.435 139.993 404.017 148.321C409.999 141.274 416.831 135.722 424.519 131.984C432.208 128.246 440.644 126.219 448.865 126.219C449.08 126.219 449.292 126.219 449.507 126.219H449.827C458.048 126.219 466.591 128.353 474.493 132.304C482.074 136.149 488.908 141.807 494.673 148.963Z" fill="black"/>
<path d="M243.212 107.543C245.697 109.867 248.369 112.168 251.864 114.087C253.903 115.185 256.268 116.129 258.961 116.69C261.789 117.3 264.85 117.453 267.856 117.572C304.301 118.778 340.755 119.906 377.204 121.067C379.415 121.178 381.65 121.118 383.845 121.33C366.578 121.122 349.304 121.033 332.035 120.861C309.854 120.689 287.677 120.484 265.496 120.309C262.627 120.244 259.706 120.389 256.88 120.059C252.64 119.54 249.334 117.621 248.021 115.411C246.439 112.784 244.72 110.18 243.212 107.543Z" fill="black"/>
<path d="M269.284 123.809C270.571 123.717 271.85 123.529 273.156 123.537C297.357 124.115 321.571 124.641 345.781 125.077C354.548 125.208 363.314 125.387 372.088 125.405C373.066 125.417 374.046 125.474 375.021 125.551C371.542 125.494 368.073 125.729 364.599 125.755C342.599 126.297 320.573 126.331 298.562 126.274C281.21 126.221 263.864 126.038 246.521 125.79C254.1 125.091 261.698 124.476 269.284 123.809Z" fill="black"/>
<path d="M190.819 129.603C197.399 129.888 203.947 130.355 210.519 130.693C240.892 132.402 271.283 134.029 301.696 135.505C322.039 136.478 342.391 137.41 362.777 138.065C367.78 138.176 372.773 138.386 377.778 138.409C369.701 138.473 361.622 138.35 353.545 138.317C333.082 138.222 312.621 138.129 292.158 138.082C290.694 138.065 289.228 138.109 287.767 138.05C255.447 135.247 223.144 132.388 190.819 129.603Z" fill="black"/>
</g>
<path d="M367.12 83.256C367.12 83.256 341.41 66.1337 313.495 62.1119C285.546 58.0727 256.069 63.843 240.474 68.1529L254.049 78.9794L303.152 83.0861L352.254 87.1927L273.225 90.5864H377.675C375.927 87.6006 367.12 83.256 367.12 83.256Z" fill="black"/>
<mask id="mask1_40015162_850" style="mask-type:luminance" maskUnits="userSpaceOnUse" x="504" y="138" width="40" height="14">
<path d="M543.521 138.196H504.072V151.624H543.521V138.196Z" fill="white"/>
</mask>
<g mask="url(#mask1_40015162_850)">
<path d="M543.389 151.929C543.389 151.929 535.7 140.824 504.308 138.795C504.308 138.795 510.502 145.202 514.238 147.764C517.976 150.327 522.781 148.938 530.362 149.793C538.051 150.54 543.389 151.929 543.389 151.929Z" fill="black"/>
</g>
<line x1="196.335" y1="164.148" x2="557.568" y2="164.148" stroke="black" stroke-width="1.50223"/>
<path d="M215.264 215.696C213.389 215.696 211.693 215.488 210.175 215.071C208.687 214.684 207.496 214.014 206.603 213.062C205.74 212.11 205.309 210.815 205.309 209.178C205.309 207.481 205.77 205.919 206.693 204.49C207.615 203.032 208.821 201.96 210.309 201.276L210.353 200.963C209.103 199.892 208.478 198.299 208.478 196.186C208.478 194.311 208.835 192.749 209.55 191.499C210.264 190.249 211.202 189.252 212.362 188.507C213.523 187.763 214.803 187.243 216.202 186.945C217.63 186.617 219.029 186.454 220.398 186.454C222.006 186.454 223.494 186.647 224.863 187.034C226.262 187.421 227.378 188.076 228.211 188.999C229.074 189.921 229.506 191.186 229.506 192.793C229.506 194.52 229.104 196.127 228.301 197.615C227.497 199.073 226.515 200.189 225.354 200.963L225.309 201.276C226.172 201.752 226.842 202.437 227.318 203.329C227.824 204.193 228.077 205.175 228.077 206.276C228.077 208.538 227.497 210.368 226.336 211.767C225.175 213.136 223.613 214.133 221.648 214.758C219.714 215.384 217.586 215.696 215.264 215.696ZM209.728 188.954L192.808 187.123H212.005C211.202 187.6 210.443 188.21 209.728 188.954ZM207.407 193.374L188.835 191.409H208.077C207.957 191.707 207.838 192.019 207.719 192.347C207.6 192.674 207.496 193.017 207.407 193.374ZM219.639 197.838C220.205 197.838 220.547 197.57 220.666 197.035L221.291 193.418H219.595C218.761 193.418 218.107 193.523 217.63 193.731C217.154 193.909 216.842 194.43 216.693 195.293L216.559 196.142L219.059 197.66C219.297 197.779 219.491 197.838 219.639 197.838ZM207.228 197.704L188.299 195.695H207.139V196.186C207.139 196.454 207.139 196.722 207.139 196.99C207.169 197.228 207.198 197.466 207.228 197.704ZM207.094 201.901L189.326 199.981H207.943C208.002 200.13 208.077 200.279 208.166 200.428C208.255 200.547 208.344 200.681 208.434 200.829C207.957 201.127 207.511 201.484 207.094 201.901ZM204.416 206.231L185.933 204.267H205.219L205.175 204.401C204.847 205.026 204.594 205.636 204.416 206.231ZM214.282 208.955H216.023C216.886 208.955 217.541 208.865 217.988 208.687C218.434 208.478 218.732 207.943 218.881 207.08L219.059 206.053L216.425 204.58C216.127 204.401 215.86 204.312 215.621 204.312C215.294 204.312 215.086 204.565 214.996 205.071L214.282 208.955ZM204.103 210.562L185.174 208.553H204.014C203.984 208.672 203.969 208.791 203.969 208.91C203.969 208.999 203.969 209.089 203.969 209.178C203.969 209.654 204.014 210.115 204.103 210.562ZM206.514 214.892L187.629 212.883H204.817C205.204 213.657 205.77 214.327 206.514 214.892ZM240.991 201.097C241.556 197.853 242.315 195.159 243.268 193.017C244.25 190.844 245.649 189.207 247.464 188.106C249.31 187.004 251.795 186.454 254.92 186.454C258.462 186.454 260.917 187.153 262.286 188.552C263.685 189.951 264.385 192.034 264.385 194.802C264.385 195.725 264.325 196.707 264.206 197.749C264.087 198.791 263.923 199.907 263.715 201.097C263.149 204.312 262.376 207.005 261.393 209.178C260.441 211.321 259.057 212.943 257.241 214.044C255.426 215.145 252.941 215.696 249.786 215.696C246.244 215.696 243.774 214.997 242.375 213.598C241.006 212.199 240.321 210.13 240.321 207.392C240.321 205.547 240.544 203.449 240.991 201.097ZM246.348 187.123C245.961 187.391 245.589 187.674 245.232 187.972C244.875 188.269 244.533 188.597 244.205 188.954L227.151 187.123H246.348ZM242.464 191.409C242.315 191.707 242.166 192.019 242.018 192.347C241.869 192.674 241.72 193.017 241.571 193.374L223.267 191.409H242.464ZM250.634 196.008L248.402 208.508H250.188C251.319 208.508 252.197 208.389 252.822 208.151C253.447 207.913 253.863 207.243 254.072 206.142L256.259 193.642H254.25C253.089 193.642 252.241 193.761 251.706 193.999C251.2 194.237 250.842 194.907 250.634 196.008ZM240.812 195.695L240.276 197.704L221.526 195.695H240.812ZM239.428 201.99L220.499 199.981H239.785L239.428 201.99ZM238.982 206.276L220.052 204.267H239.16C239.131 204.594 239.101 204.922 239.071 205.249C239.041 205.577 239.012 205.919 238.982 206.276ZM238.982 208.553C239.041 209.267 239.131 209.937 239.25 210.562L220.365 208.553H238.982ZM241.66 214.892L222.731 212.883H240.053C240.47 213.687 241.006 214.357 241.66 214.892ZM275.521 201.097C276.086 197.853 276.845 195.159 277.798 193.017C278.78 190.844 280.179 189.207 281.994 188.106C283.839 187.004 286.325 186.454 289.45 186.454C292.992 186.454 295.447 187.153 296.816 188.552C298.215 189.951 298.914 192.034 298.914 194.802C298.914 195.725 298.855 196.707 298.736 197.749C298.617 198.791 298.453 199.907 298.245 201.097C297.679 204.312 296.905 207.005 295.923 209.178C294.971 211.321 293.587 212.943 291.771 214.044C289.956 215.145 287.471 215.696 284.316 215.696C280.774 215.696 278.303 214.997 276.905 213.598C275.536 212.199 274.851 210.13 274.851 207.392C274.851 205.547 275.074 203.449 275.521 201.097ZM280.878 187.123C280.491 187.391 280.119 187.674 279.762 187.972C279.405 188.269 279.062 188.597 278.735 188.954L261.681 187.123H280.878ZM276.994 191.409C276.845 191.707 276.696 192.019 276.547 192.347C276.399 192.674 276.25 193.017 276.101 193.374L257.797 191.409H276.994ZM285.164 196.008L282.932 208.508H284.717C285.848 208.508 286.726 208.389 287.351 208.151C287.977 207.913 288.393 207.243 288.602 206.142L290.789 193.642H288.78C287.619 193.642 286.771 193.761 286.235 193.999C285.729 194.237 285.372 194.907 285.164 196.008ZM275.342 195.695L274.806 197.704L256.056 195.695H275.342ZM273.958 201.99L255.029 199.981H274.315L273.958 201.99ZM273.512 206.276L254.582 204.267H273.69C273.66 204.594 273.631 204.922 273.601 205.249C273.571 205.577 273.541 205.919 273.512 206.276ZM273.512 208.553C273.571 209.267 273.66 209.937 273.78 210.562L254.895 208.553H273.512ZM276.19 214.892L257.261 212.883H274.583C275 213.687 275.536 214.357 276.19 214.892Z" fill="#AB0415"/>
<path d="M309.381 215.026L314.292 187.123H328.042C330.215 187.123 331.778 187.495 332.73 188.24C333.682 188.984 334.159 190.13 334.159 191.677C334.159 194.058 333.623 195.963 332.551 197.392C331.51 198.791 330.334 199.654 329.024 199.981L328.98 200.249C330.438 200.517 331.465 201.127 332.06 202.079C332.685 203.032 332.998 204.193 332.998 205.562C332.998 207.228 332.685 208.791 332.06 210.249C331.465 211.678 330.542 212.839 329.292 213.732C328.072 214.595 326.524 215.026 324.649 215.026H309.381ZM312.551 189.132L293.666 187.123H312.908L312.551 189.132ZM311.836 193.418L292.907 191.409H312.149L311.836 193.418ZM320.944 197.392H323.578C324.352 197.392 324.887 197.094 325.185 196.499C325.483 195.904 325.631 195.234 325.631 194.49C325.631 194.103 325.542 193.805 325.364 193.597C325.185 193.359 324.858 193.24 324.381 193.24H321.703L320.944 197.392ZM311.077 197.704L292.148 195.695H311.434L311.077 197.704ZM310.318 201.99L291.389 199.981H310.676L310.318 201.99ZM318.979 208.464H322.283C323.087 208.464 323.667 208.151 324.024 207.526C324.381 206.901 324.56 206.172 324.56 205.338C324.56 204.922 324.456 204.58 324.248 204.312C324.039 204.044 323.667 203.91 323.131 203.91H319.783L318.979 208.464ZM309.559 206.276L290.63 204.267H309.917L309.559 206.276ZM308.8 210.562L289.871 208.553H309.158L308.8 210.562ZM308.041 214.892L289.112 212.883H308.399L308.041 214.892ZM343.419 215.026L355.16 187.123H368.286L370.25 215.026H361.276L361.098 210.607H354.089L352.347 215.026H343.419ZM352.883 189.043L334.668 187.123H353.687L352.883 189.043ZM351.053 193.329L332.838 191.409H351.856L351.053 193.329ZM349.267 197.66L331.007 195.695H350.071L349.267 197.66ZM356.857 203.508H360.428V195.695H359.982L356.857 203.508ZM347.437 201.945L329.177 199.981H348.285L347.437 201.945ZM345.651 206.231L327.346 204.267H346.454L345.651 206.231ZM343.82 210.517L325.516 208.553H344.669L343.82 210.517ZM341.99 214.848L323.686 212.883H342.838L341.99 214.848ZM385.85 215.026L389.466 194.267H383.35L384.645 187.123H405.405L404.11 194.267H397.949L394.333 215.026H385.85ZM382.859 189.132L363.974 187.123H383.216L382.859 189.132ZM382.145 193.418L363.215 191.409H382.457L382.145 193.418ZM387.502 197.704L368.573 195.695H387.859L387.502 197.704ZM386.743 201.99L367.814 199.981H387.1L386.743 201.99ZM385.984 206.276L367.055 204.267H386.341L385.984 206.276ZM385.225 210.562L366.296 208.553H385.582L385.225 210.562ZM384.466 214.892L365.537 212.883H384.823L384.466 214.892ZM418.287 215.026L421.904 194.267H415.787L417.082 187.123H437.842L436.547 194.267H430.386L426.77 215.026H418.287ZM415.296 189.132L396.411 187.123H415.653L415.296 189.132ZM414.582 193.418L395.652 191.409H414.894L414.582 193.418ZM419.939 197.704L401.01 195.695H420.296L419.939 197.704ZM419.18 201.99L400.251 199.981H419.537L419.18 201.99ZM418.421 206.276L399.492 204.267H418.778L418.421 206.276ZM417.662 210.562L398.733 208.553H418.019L417.662 210.562ZM416.903 214.892L397.974 212.883H417.26L416.903 214.892ZM445.233 215.026L450.144 187.123H468.806L466.484 194.267H457.332L456.707 198.017H465.189L464.029 204.49H455.546L454.966 207.883H465.368L464.118 215.026H445.233ZM448.403 189.132L429.518 187.123H448.76L448.403 189.132ZM447.689 193.418L428.759 191.409H448.001L447.689 193.418ZM446.93 197.704L428 195.695H447.287L446.93 197.704ZM446.171 201.99L427.241 199.981H446.528L446.171 201.99ZM445.412 206.276L426.482 204.267H445.769L445.412 206.276ZM444.653 210.562L425.723 208.553H445.01L444.653 210.562ZM443.894 214.892L424.964 212.883H444.251L443.894 214.892ZM477.627 215.026L482.538 187.123H495.931C497.866 187.123 499.384 187.421 500.485 188.016C501.616 188.612 502.404 189.43 502.851 190.472C503.327 191.484 503.565 192.645 503.565 193.954C503.565 194.758 503.476 195.71 503.297 196.811C503.149 197.913 502.866 199.044 502.449 200.204C502.032 201.335 501.437 202.392 500.663 203.374C499.919 204.356 498.967 205.145 497.806 205.74L500.753 215.026H491.422L489.368 206.722H487.538L486.109 215.026H477.627ZM480.796 189.132L461.912 187.123H481.154L480.796 189.132ZM480.037 193.418L461.153 191.409H480.395L480.037 193.418ZM488.743 199.847H490.708C491.571 199.847 492.3 199.758 492.895 199.579C493.49 199.371 493.862 198.835 494.011 197.972C494.16 197.228 494.249 196.663 494.279 196.276C494.339 195.889 494.368 195.68 494.368 195.651C494.368 194.996 494.086 194.609 493.52 194.49C492.984 194.341 492.285 194.267 491.422 194.267H489.725L488.743 199.847ZM479.279 197.704L460.394 195.695H479.636L479.279 197.704ZM478.52 201.99L459.635 199.981H478.877L478.52 201.99ZM477.805 206.276L458.876 204.267H478.162L477.805 206.276ZM477.046 210.562L458.117 208.553H477.403L477.046 210.562ZM476.287 214.892L457.358 212.883H476.644L476.287 214.892ZM515.794 215.026L517.089 207.437L513.071 187.123H522.446L523.027 196.945H523.339L527.447 187.123H536.822L525.572 207.437L524.277 215.026H515.794ZM512.134 189.132L493.249 187.123H511.732L512.134 189.132ZM512.937 193.418L494.052 191.409H512.535L512.937 193.418ZM513.785 197.704L494.901 195.695H513.384L513.785 197.704ZM514.634 201.99L495.704 199.981H514.232L514.634 201.99ZM515.482 206.276L496.553 204.267H515.08L515.482 206.276ZM515.169 210.562L496.285 208.553H515.482L515.169 210.562ZM514.41 214.892L495.526 212.883H514.768L514.41 214.892ZM542.327 215.026L547.237 187.123H560.631C562.565 187.123 564.083 187.436 565.185 188.061C566.286 188.656 567.06 189.49 567.506 190.561C567.982 191.633 568.22 192.838 568.22 194.177C568.22 194.981 568.131 195.978 567.953 197.169C567.804 198.359 567.506 199.594 567.06 200.874C566.613 202.154 565.988 203.359 565.185 204.49C564.381 205.621 563.354 206.544 562.104 207.258C560.854 207.943 559.321 208.285 557.506 208.285H551.97L550.809 215.026H542.327ZM545.496 189.132L526.612 187.123H545.853L545.496 189.132ZM544.737 193.418L525.853 191.409H545.095L544.737 193.418ZM553.22 201.142H555.184C556.047 201.142 556.777 201.053 557.372 200.874C557.967 200.666 558.339 200.13 558.488 199.267C558.696 198.166 558.83 197.377 558.89 196.901C558.979 196.395 559.024 196.067 559.024 195.918C559.053 195.77 559.068 195.68 559.068 195.651C559.068 195.026 558.815 194.639 558.309 194.49C557.803 194.341 557.163 194.267 556.39 194.267H554.425L553.22 201.142ZM543.978 197.704L525.094 195.695H544.336L543.978 197.704ZM543.219 201.99L524.335 199.981H543.577L543.219 201.99ZM542.505 206.276L523.576 204.267H542.862L542.505 206.276ZM541.746 210.562L522.817 208.553H542.103L541.746 210.562ZM540.987 214.892L522.058 212.883H541.344L540.987 214.892ZM576.638 215.026L581.549 187.123H594.943C596.877 187.123 598.395 187.421 599.497 188.016C600.628 188.612 601.416 189.43 601.863 190.472C602.339 191.484 602.577 192.645 602.577 193.954C602.577 194.758 602.488 195.71 602.309 196.811C602.16 197.913 601.878 199.044 601.461 200.204C601.044 201.335 600.449 202.392 599.675 203.374C598.931 204.356 597.979 205.145 596.818 205.74L599.764 215.026H590.434L588.38 206.722H586.55L585.121 215.026H576.638ZM579.808 189.132L560.924 187.123H580.165L579.808 189.132ZM579.049 193.418L560.165 191.409H579.406L579.049 193.418ZM587.755 199.847H589.719C590.582 199.847 591.312 199.758 591.907 199.579C592.502 199.371 592.874 198.835 593.023 197.972C593.172 197.228 593.261 196.663 593.291 196.276C593.35 195.889 593.38 195.68 593.38 195.651C593.38 194.996 593.097 194.609 592.532 194.49C591.996 194.341 591.297 194.267 590.434 194.267H588.737L587.755 199.847ZM578.29 197.704L559.406 195.695H578.647L578.29 197.704ZM577.531 201.99L558.647 199.981H577.889L577.531 201.99ZM576.817 206.276L557.888 204.267H577.174L576.817 206.276ZM576.058 210.562L557.129 208.553H576.415L576.058 210.562ZM575.299 214.892L556.37 212.883H575.656L575.299 214.892ZM622.753 215.696C618.884 215.696 616.16 214.937 614.583 213.419C613.035 211.901 612.261 209.654 612.261 206.678C612.261 205.844 612.306 204.966 612.395 204.044C612.514 203.121 612.663 202.139 612.842 201.097C613.407 197.853 614.241 195.159 615.342 193.017C616.443 190.844 617.991 189.207 619.985 188.106C621.979 187.004 624.613 186.454 627.887 186.454C631.756 186.454 634.465 187.213 636.012 188.731C637.59 190.219 638.379 192.466 638.379 195.472C638.379 196.692 638.274 198.091 638.066 199.669C637.887 201.246 637.56 202.853 637.084 204.49C636.637 206.127 636.027 207.675 635.253 209.133C634.48 210.592 633.512 211.842 632.352 212.883C631.161 213.925 629.777 214.654 628.2 215.071C626.622 215.488 624.807 215.696 622.753 215.696ZM616.86 188.597L603.199 187.123H618.869C618.512 187.332 618.169 187.555 617.842 187.793C617.515 188.031 617.187 188.299 616.86 188.597ZM613.735 193.195L597.038 191.409H614.628C614.479 191.707 614.33 192.005 614.181 192.302C614.032 192.57 613.883 192.868 613.735 193.195ZM620.699 208.062H624.226C625.208 208.062 626.012 207.943 626.637 207.705C627.292 207.467 627.723 206.797 627.932 205.696L629.985 194.088H626.414C625.432 194.088 624.628 194.207 624.003 194.445C623.378 194.683 622.961 195.353 622.753 196.454L620.699 208.062ZM612.261 197.526L594.939 195.695H612.797L612.261 197.526ZM611.413 201.856L593.868 199.981H611.726L611.592 200.874C611.562 201.053 611.532 201.231 611.502 201.41C611.473 201.559 611.443 201.707 611.413 201.856ZM610.967 206.142L593.377 204.267H611.101C611.011 204.922 610.967 205.547 610.967 206.142ZM611.324 210.428L593.957 208.553H611.011C611.071 208.88 611.116 209.208 611.145 209.535C611.205 209.833 611.264 210.13 611.324 210.428ZM613.69 214.535L598.243 212.883H612.351C612.738 213.568 613.184 214.119 613.69 214.535Z" fill="black"/>
<path d="M639.189 238.8C512.12 238.8 440.875 238.8 313.804 238.8" stroke="black" stroke-width="2.01849"/>
</svg>
